<?xml version="1.0" encoding="UTF-8"?>
<svg width="640" height="360" viewBox="0 0 640 360" fill="none" xmlns="http://www.w3.org/2000/svg">
  <rect width="640" height="360" fill="#1A1A1A"/>
  <rect x="20" y="20" width="600" height="320" fill="#2A2A2A"/>
  <circle cx="320" cy="180" r="100" fill="#3A3A3A"/>
  <path d="M320 100C320 100 340 140 340 180C340 220 320 260 320 260" stroke="#FF4D4D" stroke-width="4"/>
  <path d="M320 100C320 100 300 140 300 180C300 220 320 260 320 260" stroke="#FF4D4D" stroke-width="4"/>
  <path d="M220 180C220 180 260 140 320 140C380 140 420 180 420 180" stroke="#FF4D4D" stroke-width="4"/>
  <path d="M220 220C220 220 260 260 320 260C380 260 420 220 420 220" stroke="#FF4D4D" stroke-width="4"/>
</svg> 