<?xml version="1.0" encoding="UTF-8"?>
<svg width="32" height="32" viewBox="0 0 32 32" fill="none" xmlns="http://www.w3.org/2000/svg">
  <path d="M16 2C12.5 2 9.5 4 8 7C6.5 10 7 13.5 9 16C11 18.5 14 20 16 20C18 20 21 18.5 23 16C25 13.5 25.5 10 24 7C22.5 4 19.5 2 16 2Z" fill="#FF4D4D"/>
  <path d="M16 4C13.5 4 11 5.5 10 8C9 10.5 9.5 13 11 15C12.5 17 14.5 18 16 18C17.5 18 19.5 17 21 15C22.5 13 23 10.5 22 8C21 5.5 18.5 4 16 4Z" fill="#FF0000"/>
  <path d="M16 6C14.5 6 13 7 12.5 8.5C12 10 12.5 11.5 13.5 12.5C14.5 13.5 15.5 14 16 14C16.5 14 17.5 13.5 18.5 12.5C19.5 11.5 20 10 19.5 8.5C19 7 17.5 6 16 6Z" fill="#FFD700"/>
</svg> 